# xmcd CD database file
#
# Track frame offsets:
#	150
#	15402
#	29852
#	44310
#	59286
#	74870
#	94119
#	112006
#	139285
#	153758
#	176948
#	193591
#	208376
#	225503
#	242191
#
# Disc length: 3418 seconds
#
# Revision: 1
# Processed by: cddbd v1.5.2PL0 Copyright (c) Steve Scherf et al.
# Submitted via: CDex 1.51
#
DISCID=e20d580f
DTITLE=Various Artist - STTW-1267
DYEAR=1900
DGENRE=Blues
TTITLE0=Dave Edmunds - I Hear You Knocking
TTITLE1=Edison Lighthouse - Love Grows (where rosemary goes)
TTITLE2=Partridge Family The - I Think I Love You
TTITLE3=Elvis Presley - Burning Love
TTITLE4=Donny Osmond - Puppy Love
TTITLE5=Sweet - The Ballroom Blitz
TTITLE6=T Rex - 20th Century Boy
TTITLE7=Thin Lizzy - Whisky In The Jar
TTITLE8=Ike And Tina Turner - Nutbush City Limits
TTITLE9=Wizzard - See My Baby Jive
TTITLE10=Showaddywaddy - Hey Rock And Roll
TTITLE11=Sparks - This Town Ain't Big Enough For The Both Of Us
TTITLE12=Gary Puckett - Young Girl
TTITLE13=David Bowie - Golden Years
TTITLE14=Bryan Ferry - Let's Stick Together
EXTD=
EXTT0=
EXTT1=
EXTT2=
EXTT3=
EXTT4=
EXTT5=
EXTT6=
EXTT7=
EXTT8=
EXTT9=
EXTT10=
EXTT11=
EXTT12=
EXTT13=
EXTT14=
PLAYORDER=
